<mxfile host="65bd71144e">
    <diagram id="HaY6czHnYQWGNKejsw9c" name="Page-1">
        <mxGraphModel dx="1297" dy="717" grid="1" gridSize="10" guides="1" tooltips="1" connect="1" arrows="1" fold="1" page="1" pageScale="1" pageWidth="827" pageHeight="1169" math="0" shadow="0">
            <root>
                <mxCell id="0"/>
                <mxCell id="1" parent="0"/>
                <mxCell id="15" value="" style="rounded=0;orthogonalLoop=1;jettySize=auto;html=1;endArrow=none;endFill=0;sketch=0;sourcePerimeterSpacing=0;targetPerimeterSpacing=0;" parent="1" target="17" edge="1">
                    <mxGeometry relative="1" as="geometry">
                        <mxPoint x="400" y="187" as="sourcePoint"/>
                    </mxGeometry>
                </mxCell>
                <mxCell id="16" value="" style="rounded=0;orthogonalLoop=1;jettySize=auto;html=1;endArrow=halfCircle;endFill=0;entryX=0.5;entryY=0.5;endSize=6;strokeWidth=1;sketch=0;" parent="1" target="17" edge="1">
                    <mxGeometry relative="1" as="geometry">
                        <mxPoint x="440" y="187" as="sourcePoint"/>
                    </mxGeometry>
                </mxCell>
                <mxCell id="17" value="" style="ellipse;whiteSpace=wrap;html=1;align=center;aspect=fixed;resizable=0;points=[];outlineConnect=0;sketch=0;" parent="1" vertex="1">
                    <mxGeometry x="415" y="182" width="10" height="10" as="geometry"/>
                </mxCell>
                <mxCell id="27" value="Root" style="swimlane;fontSize=12;movable=1;resizable=1;rotatable=1;deletable=1;editable=1;connectable=1;" parent="1" vertex="1">
                    <mxGeometry x="40" y="100" width="760" height="650" as="geometry"/>
                </mxCell>
                <mxCell id="33" value="childContainer" style="text;html=1;resizable=0;autosize=1;align=left;verticalAlign=middle;points=[];fillColor=none;strokeColor=none;rounded=0;fontSize=12;fontStyle=2" parent="27" vertex="1">
                    <mxGeometry x="408" y="77" width="90" height="20" as="geometry"/>
                </mxCell>
                <mxCell id="35" value="Tokens" style="text;html=1;strokeColor=none;fillColor=none;align=center;verticalAlign=middle;whiteSpace=wrap;rounded=0;fontSize=12;fontStyle=1" parent="27" vertex="1">
                    <mxGeometry x="417" y="30" width="60" height="30" as="geometry"/>
                </mxCell>
                <mxCell id="36" value="() =&amp;gt; Root.createChildContainer()" style="text;html=1;resizable=0;autosize=1;align=right;verticalAlign=middle;points=[];fillColor=none;strokeColor=none;rounded=0;fontSize=12;fontStyle=2" parent="27" vertex="1">
                    <mxGeometry x="164" y="77" width="190" height="20" as="geometry"/>
                </mxCell>
                <mxCell id="37" value="Providers" style="text;html=1;strokeColor=none;fillColor=none;align=center;verticalAlign=middle;whiteSpace=wrap;rounded=0;fontSize=12;fontStyle=1" parent="27" vertex="1">
                    <mxGeometry x="272" y="30" width="60" height="30" as="geometry"/>
                </mxCell>
                <mxCell id="48" value="" style="shape=requiredInterface;html=1;verticalLabelPosition=bottom;sketch=0;fontSize=12;" parent="27" vertex="1">
                    <mxGeometry x="380.25" y="162.5" width="7.5" height="15" as="geometry"/>
                </mxCell>
                <mxCell id="50" value="receiptScanner" style="text;html=1;resizable=0;autosize=1;align=left;verticalAlign=middle;points=[];fillColor=none;strokeColor=none;rounded=0;fontSize=12;fontStyle=2" parent="27" vertex="1">
                    <mxGeometry x="408" y="160" width="100" height="20" as="geometry"/>
                </mxCell>
                <mxCell id="64" value="import" style="html=1;verticalAlign=bottom;startArrow=circle;startFill=1;endArrow=open;startSize=6;endSize=8;fontSize=12;" parent="27" edge="1">
                    <mxGeometry width="80" relative="1" as="geometry">
                        <mxPoint x="30" y="230" as="sourcePoint"/>
                        <mxPoint x="110" y="230" as="targetPoint"/>
                    </mxGeometry>
                </mxCell>
                <mxCell id="65" value="export" style="html=1;verticalAlign=bottom;startArrow=circle;startFill=1;endArrow=open;startSize=6;endSize=8;fontSize=12;" parent="27" edge="1">
                    <mxGeometry width="80" relative="1" as="geometry">
                        <mxPoint x="30" y="260.0000000000001" as="sourcePoint"/>
                        <mxPoint x="110" y="260.0000000000001" as="targetPoint"/>
                    </mxGeometry>
                </mxCell>
                <mxCell id="66" value="" style="group" parent="27" vertex="1" connectable="0">
                    <mxGeometry x="120" y="200" width="175" height="186" as="geometry"/>
                </mxCell>
                <mxCell id="18" value="GrocyTrolleyApp" style="swimlane;fontStyle=1;align=center;verticalAlign=top;childLayout=stackLayout;horizontal=1;startSize=26;horizontalStack=0;resizeParent=1;resizeParentMax=0;resizeLast=0;collapsible=1;marginBottom=0;" parent="66" vertex="1">
                    <mxGeometry width="175" height="60" as="geometry"/>
                </mxCell>
                <mxCell id="19" value="promptProvider" style="text;strokeColor=none;fillColor=none;align=left;verticalAlign=top;spacingLeft=4;spacingRight=4;overflow=hidden;rotatable=0;points=[[0,0.5],[1,0.5]];portConstraint=eastwest;" parent="18" vertex="1">
                    <mxGeometry y="26" width="175" height="26" as="geometry"/>
                </mxCell>
                <mxCell id="20" value="" style="line;strokeWidth=1;fillColor=none;align=left;verticalAlign=middle;spacingTop=-1;spacingLeft=3;spacingRight=3;rotatable=0;labelPosition=right;points=[];portConstraint=eastwest;" parent="18" vertex="1">
                    <mxGeometry y="52" width="175" height="8" as="geometry"/>
                </mxCell>
                <mxCell id="58" value="appContainer: childContainer" style="swimlane;fontSize=12;startSize=30;" parent="66" vertex="1">
                    <mxGeometry y="56" width="175" height="130" as="geometry"/>
                </mxCell>
                <mxCell id="60" value="User-scoped shopping services" style="ellipse;whiteSpace=wrap;html=1;aspect=fixed;fontSize=12;" parent="58" vertex="1">
                    <mxGeometry x="47.5" y="40" width="80" height="80" as="geometry"/>
                </mxCell>
                <mxCell id="72" value="botContainer: childContainer" style="swimlane;fontSize=12;startSize=30;movable=1;resizable=1;rotatable=1;deletable=1;editable=1;connectable=1;" parent="27" vertex="1">
                    <mxGeometry x="317" y="248" width="433" height="392" as="geometry"/>
                </mxCell>
                <mxCell id="98" value="" style="rounded=0;orthogonalLoop=1;jettySize=auto;html=1;endArrow=none;endFill=0;sketch=0;sourcePerimeterSpacing=0;targetPerimeterSpacing=0;" edge="1" parent="72" target="100">
                    <mxGeometry relative="1" as="geometry">
                        <mxPoint x="240" y="105" as="sourcePoint"/>
                    </mxGeometry>
                </mxCell>
                <mxCell id="99" value="" style="rounded=0;orthogonalLoop=1;jettySize=auto;html=1;endArrow=halfCircle;endFill=0;entryX=0.5;entryY=0.5;endSize=6;strokeWidth=1;sketch=0;" edge="1" parent="72" target="100">
                    <mxGeometry relative="1" as="geometry">
                        <mxPoint x="280" y="105" as="sourcePoint"/>
                    </mxGeometry>
                </mxCell>
                <mxCell id="100" value="" style="ellipse;whiteSpace=wrap;html=1;align=center;aspect=fixed;resizable=0;points=[];outlineConnect=0;sketch=0;" vertex="1" parent="72">
                    <mxGeometry x="255" y="100" width="10" height="10" as="geometry"/>
                </mxCell>
                <mxCell id="101" value="childContainer" style="text;html=1;resizable=0;autosize=1;align=left;verticalAlign=middle;points=[];fillColor=none;strokeColor=none;rounded=0;fontSize=12;fontStyle=2" vertex="1" parent="72">
                    <mxGeometry x="288" y="95" width="90" height="20" as="geometry"/>
                </mxCell>
                <mxCell id="102" value="Tokens" style="text;html=1;strokeColor=none;fillColor=none;align=center;verticalAlign=middle;whiteSpace=wrap;rounded=0;fontSize=12;fontStyle=1" vertex="1" parent="72">
                    <mxGeometry x="297" y="48" width="60" height="30" as="geometry"/>
                </mxCell>
                <mxCell id="103" value="() =&amp;gt; botContainer.createChildContainer()" style="text;html=1;resizable=0;autosize=1;align=right;verticalAlign=middle;points=[];fillColor=none;strokeColor=none;rounded=0;fontSize=12;fontStyle=2" vertex="1" parent="72">
                    <mxGeometry x="-6" y="95" width="240" height="20" as="geometry"/>
                </mxCell>
                <mxCell id="104" value="Providers" style="text;html=1;strokeColor=none;fillColor=none;align=center;verticalAlign=middle;whiteSpace=wrap;rounded=0;fontSize=12;fontStyle=1" vertex="1" parent="72">
                    <mxGeometry x="152" y="48" width="60" height="30" as="geometry"/>
                </mxCell>
                <mxCell id="106" value="" style="rounded=0;orthogonalLoop=1;jettySize=auto;html=1;endArrow=none;endFill=0;sketch=0;sourcePerimeterSpacing=0;targetPerimeterSpacing=0;" edge="1" parent="72" target="108">
                    <mxGeometry relative="1" as="geometry">
                        <mxPoint x="240" y="133" as="sourcePoint"/>
                    </mxGeometry>
                </mxCell>
                <mxCell id="107" value="" style="rounded=0;orthogonalLoop=1;jettySize=auto;html=1;endArrow=halfCircle;endFill=0;entryX=0.5;entryY=0.5;endSize=6;strokeWidth=1;sketch=0;" edge="1" parent="72" target="108">
                    <mxGeometry relative="1" as="geometry">
                        <mxPoint x="280" y="133" as="sourcePoint"/>
                    </mxGeometry>
                </mxCell>
                <mxCell id="108" value="" style="ellipse;whiteSpace=wrap;html=1;align=center;aspect=fixed;resizable=0;points=[];outlineConnect=0;sketch=0;" vertex="1" parent="72">
                    <mxGeometry x="255" y="128" width="10" height="10" as="geometry"/>
                </mxCell>
                <mxCell id="109" value="promptProvider" style="text;html=1;resizable=0;autosize=1;align=left;verticalAlign=middle;points=[];fillColor=none;strokeColor=none;rounded=0;fontSize=12;fontStyle=2" vertex="1" parent="72">
                    <mxGeometry x="288" y="123" width="100" height="20" as="geometry"/>
                </mxCell>
                <mxCell id="110" value="SlackPromptProvider" style="text;html=1;resizable=0;autosize=1;align=right;verticalAlign=middle;points=[];fillColor=none;strokeColor=none;rounded=0;fontSize=12;fontStyle=2" vertex="1" parent="72">
                    <mxGeometry x="103" y="123" width="130" height="20" as="geometry"/>
                </mxCell>
                <object label="GrocyTrolleySlackBot" bing="bong" id="75">
                    <mxCell style="swimlane;fontStyle=1;align=center;verticalAlign=top;childLayout=stackLayout;horizontal=1;startSize=26;horizontalStack=0;resizeParent=1;resizeParentMax=0;resizeLast=0;collapsible=1;marginBottom=0;" vertex="1" parent="27">
                        <mxGeometry x="317" y="196" width="193" height="52" as="geometry"/>
                    </mxCell>
                </object>
                <mxCell id="76" value="slackApp: SlackAppService" style="text;strokeColor=none;fillColor=none;align=left;verticalAlign=top;spacingLeft=4;spacingRight=4;overflow=hidden;rotatable=0;points=[[0,0.5],[1,0.5]];portConstraint=eastwest;" vertex="1" parent="75">
                    <mxGeometry y="26" width="193" height="26" as="geometry"/>
                </mxCell>
                <mxCell id="38" value="" style="rounded=0;orthogonalLoop=1;jettySize=auto;html=1;endArrow=none;endFill=0;sketch=0;sourcePerimeterSpacing=0;targetPerimeterSpacing=0;" parent="1" target="40" edge="1">
                    <mxGeometry relative="1" as="geometry">
                        <mxPoint x="400" y="215" as="sourcePoint"/>
                    </mxGeometry>
                </mxCell>
                <mxCell id="39" value="" style="rounded=0;orthogonalLoop=1;jettySize=auto;html=1;endArrow=halfCircle;endFill=0;entryX=0.5;entryY=0.5;endSize=6;strokeWidth=1;sketch=0;" parent="1" target="40" edge="1">
                    <mxGeometry relative="1" as="geometry">
                        <mxPoint x="440" y="215" as="sourcePoint"/>
                    </mxGeometry>
                </mxCell>
                <mxCell id="40" value="" style="ellipse;whiteSpace=wrap;html=1;align=center;aspect=fixed;resizable=0;points=[];outlineConnect=0;sketch=0;" parent="1" vertex="1">
                    <mxGeometry x="415" y="210" width="10" height="10" as="geometry"/>
                </mxCell>
                <mxCell id="41" value="promptProvider" style="text;html=1;resizable=0;autosize=1;align=left;verticalAlign=middle;points=[];fillColor=none;strokeColor=none;rounded=0;fontSize=12;fontStyle=2" parent="1" vertex="1">
                    <mxGeometry x="448" y="205" width="100" height="20" as="geometry"/>
                </mxCell>
                <mxCell id="42" value="CLIPromptProvider" style="text;html=1;resizable=0;autosize=1;align=right;verticalAlign=middle;points=[];fillColor=none;strokeColor=none;rounded=0;fontSize=12;fontStyle=2" parent="1" vertex="1">
                    <mxGeometry x="273" y="205" width="120" height="20" as="geometry"/>
                </mxCell>
                <mxCell id="43" value="" style="rounded=0;orthogonalLoop=1;jettySize=auto;html=1;endArrow=none;endFill=0;sketch=0;sourcePerimeterSpacing=0;targetPerimeterSpacing=0;" parent="1" target="45" edge="1">
                    <mxGeometry relative="1" as="geometry">
                        <mxPoint x="400" y="242" as="sourcePoint"/>
                    </mxGeometry>
                </mxCell>
                <mxCell id="44" value="" style="rounded=0;orthogonalLoop=1;jettySize=auto;html=1;endArrow=halfCircle;endFill=0;entryX=0.5;entryY=0.5;endSize=6;strokeWidth=1;sketch=0;" parent="1" target="45" edge="1">
                    <mxGeometry relative="1" as="geometry">
                        <mxPoint x="440" y="242" as="sourcePoint"/>
                    </mxGeometry>
                </mxCell>
                <mxCell id="45" value="" style="ellipse;whiteSpace=wrap;html=1;align=center;aspect=fixed;resizable=0;points=[];outlineConnect=0;sketch=0;" parent="1" vertex="1">
                    <mxGeometry x="415" y="237" width="10" height="10" as="geometry"/>
                </mxCell>
                <mxCell id="46" value="browserLoader" style="text;html=1;resizable=0;autosize=1;align=left;verticalAlign=middle;points=[];fillColor=none;strokeColor=none;rounded=0;fontSize=12;fontStyle=2" parent="1" vertex="1">
                    <mxGeometry x="446" y="232" width="100" height="20" as="geometry"/>
                </mxCell>
                <mxCell id="47" value="browserFactory" style="text;html=1;resizable=0;autosize=1;align=right;verticalAlign=middle;points=[];fillColor=none;strokeColor=none;rounded=0;fontSize=12;fontStyle=2" parent="1" vertex="1">
                    <mxGeometry x="293" y="232" width="100" height="20" as="geometry"/>
                </mxCell>
                <mxCell id="53" value="" style="edgeStyle=none;html=1;fontSize=12;endArrow=none;endFill=0;" parent="1" source="48" edge="1">
                    <mxGeometry relative="1" as="geometry">
                        <mxPoint x="440" y="270" as="targetPoint"/>
                    </mxGeometry>
                </mxCell>
                <mxCell id="67" value="slack" style="html=1;verticalAlign=bottom;startArrow=circle;startFill=1;endArrow=open;startSize=6;endSize=8;fontSize=12;" parent="1" edge="1">
                    <mxGeometry x="-0.75" width="80" relative="1" as="geometry">
                        <mxPoint x="70" y="530.0000000000001" as="sourcePoint"/>
                        <mxPoint x="350" y="530" as="targetPoint"/>
                        <mxPoint as="offset"/>
                    </mxGeometry>
                </mxCell>
                <mxCell id="117" value="import" style="html=1;verticalAlign=bottom;startArrow=circle;startFill=1;endArrow=open;startSize=6;endSize=8;fontSize=12;" edge="1" parent="1">
                    <mxGeometry width="80" relative="1" as="geometry">
                        <mxPoint x="414" y="550" as="sourcePoint"/>
                        <mxPoint x="494" y="550" as="targetPoint"/>
                    </mxGeometry>
                </mxCell>
                <mxCell id="118" value="export" style="html=1;verticalAlign=bottom;startArrow=circle;startFill=1;endArrow=open;startSize=6;endSize=8;fontSize=12;" edge="1" parent="1">
                    <mxGeometry width="80" relative="1" as="geometry">
                        <mxPoint x="414" y="580" as="sourcePoint"/>
                        <mxPoint x="494" y="580" as="targetPoint"/>
                    </mxGeometry>
                </mxCell>
                <mxCell id="119" value="" style="group" vertex="1" connectable="0" parent="1">
                    <mxGeometry x="504" y="520" width="175" height="186" as="geometry"/>
                </mxCell>
                <mxCell id="120" value="GrocyTrolleyApp" style="swimlane;fontStyle=1;align=center;verticalAlign=top;childLayout=stackLayout;horizontal=1;startSize=26;horizontalStack=0;resizeParent=1;resizeParentMax=0;resizeLast=0;collapsible=1;marginBottom=0;" vertex="1" parent="119">
                    <mxGeometry width="175" height="60" as="geometry"/>
                </mxCell>
                <mxCell id="121" value="promptProvider" style="text;strokeColor=none;fillColor=none;align=left;verticalAlign=top;spacingLeft=4;spacingRight=4;overflow=hidden;rotatable=0;points=[[0,0.5],[1,0.5]];portConstraint=eastwest;" vertex="1" parent="120">
                    <mxGeometry y="26" width="175" height="26" as="geometry"/>
                </mxCell>
                <mxCell id="122" value="" style="line;strokeWidth=1;fillColor=none;align=left;verticalAlign=middle;spacingTop=-1;spacingLeft=3;spacingRight=3;rotatable=0;labelPosition=right;points=[];portConstraint=eastwest;" vertex="1" parent="120">
                    <mxGeometry y="52" width="175" height="8" as="geometry"/>
                </mxCell>
                <mxCell id="123" value="appContainer: childContainer" style="swimlane;fontSize=12;startSize=30;" vertex="1" parent="119">
                    <mxGeometry y="56" width="175" height="130" as="geometry"/>
                </mxCell>
                <mxCell id="124" value="User-scoped shopping services" style="ellipse;whiteSpace=wrap;html=1;aspect=fixed;fontSize=12;" vertex="1" parent="123">
                    <mxGeometry x="47.5" y="40" width="80" height="80" as="geometry"/>
                </mxCell>
            </root>
        </mxGraphModel>
    </diagram>
</mxfile>